<svg width="20" height="21" viewBox="0 0 20 21" fill="none" xmlns="http://www.w3.org/2000/svg">
<path d="M9.16602 18.0003H8.33268C5.18998 18.0003 3.61864 18.0003 2.64232 17.024C1.66602 16.0477 1.66602 14.4763 1.66602 11.3337V8.83366C1.66602 5.69096 1.66602 4.11962 2.64232 3.1433C3.61864 2.16699 5.18998 2.16699 8.33268 2.16699H9.99935C13.142 2.16699 14.7134 2.16699 15.6897 3.1433C16.666 4.11962 16.666 5.69096 16.666 8.83366V9.25033" stroke="#1C1D21" stroke-width="1.2" stroke-linecap="round" stroke-linejoin="round"/>
<path opacity="0.4" d="M14.5051 12.5033C14.682 12.0549 15.3167 12.0549 15.4936 12.5033L15.5242 12.5811C15.9562 13.6764 16.8232 14.5435 17.9186 14.9755L17.9963 15.0061C18.4447 15.183 18.4447 15.8176 17.9963 15.9946L17.9186 16.0251C16.8232 16.4571 15.9562 17.3242 15.5242 18.4196L15.4936 18.4973C15.3167 18.9457 14.682 18.9457 14.5051 18.4973L14.4745 18.4196C14.0425 17.3242 13.1754 16.4571 12.0801 16.0251L12.0023 15.9946C11.5539 15.8176 11.5539 15.183 12.0023 15.0061L12.0801 14.9755C13.1754 14.5435 14.0425 13.6764 14.4745 12.5811L14.5051 12.5033Z" stroke="#1C1D21" stroke-width="1.2" stroke-linecap="round" stroke-linejoin="round"/>
<path d="M5.83398 6.33301H12.5007M5.83398 10.083H12.5007M5.83398 13.833H9.16732" stroke="#1C1D21" stroke-width="1.2" stroke-linecap="round" stroke-linejoin="round"/>
</svg>
