<svg width="21" height="20" viewBox="0 0 21 20" fill="none" xmlns="http://www.w3.org/2000/svg">
<path d="M13.8327 1.66699V5.00033M7.16602 1.66699V5.00033" stroke="#1C1D21" stroke-width="1.2" stroke-linecap="round" stroke-linejoin="round"/>
<path d="M11.3333 3.33301H9.66667C6.52397 3.33301 4.95262 3.33301 3.97631 4.30932C3 5.28563 3 6.85697 3 9.99967V11.6663C3 14.809 3 16.3804 3.97631 17.3567C4.95262 18.333 6.52397 18.333 9.66667 18.333H11.3333C14.476 18.333 16.0474 18.333 17.0237 17.3567C18 16.3804 18 14.809 18 11.6663V9.99967C18 6.85697 18 5.28563 17.0237 4.30932C16.0474 3.33301 14.476 3.33301 11.3333 3.33301Z" stroke="#1C1D21" stroke-width="1.2" stroke-linecap="round" stroke-linejoin="round"/>
<path d="M3 8.33301H18" stroke="#1C1D21" stroke-width="1.2" stroke-linecap="round" stroke-linejoin="round"/>
<path opacity="0.4" d="M8.83333 15.4168L8.83333 11.5395C8.83333 11.3797 8.71938 11.2502 8.57882 11.2502H8M12.1667 15.4153L13.4046 11.5769C13.4126 11.5522 13.4167 11.5263 13.4167 11.5002C13.4167 11.3622 13.3047 11.2502 13.1667 11.2502L11.3333 11.25" stroke="#1C1D21" stroke-width="1.2" stroke-linecap="round" stroke-linejoin="round"/>
</svg>
