<svg width="21" height="21" viewBox="0 0 21 21" fill="none" xmlns="http://www.w3.org/2000/svg">
<path d="M15.5 2.16699V4.66699M5.5 2.16699V4.66699" stroke="#1C1D21" stroke-width="1.2" stroke-linecap="round" stroke-linejoin="round"/>
<path d="M9.25065 3.41699H11.7507C14.8933 3.41699 16.4647 3.41699 17.441 4.3933C18.4173 5.36962 18.4173 6.94096 18.4173 10.0837V12.167C18.4173 15.3097 18.4173 16.8811 17.441 17.8573C16.4647 18.8337 14.8933 18.8337 11.7507 18.8337H9.25065C6.10795 18.8337 4.53661 18.8337 3.56029 17.8573C2.58398 16.8811 2.58398 15.3097 2.58398 12.167V10.0837C2.58398 6.94096 2.58398 5.36962 3.56029 4.3933C4.53661 3.41699 6.10795 3.41699 9.25065 3.41699Z" stroke="#1C1D21" stroke-width="1.2" stroke-linecap="round" stroke-linejoin="round"/>
<path d="M3 7.16699H18" stroke="#1C1D21" stroke-width="1.2" stroke-linecap="round" stroke-linejoin="round"/>
<path opacity="0.4" d="M7.53565 12.6072C8.87652 12.4402 9.93927 11.3775 10.1062 10.0367C10.1314 9.83366 10.2948 9.66699 10.4993 9.66699C10.7039 9.66699 10.8673 9.83366 10.8925 10.0367C11.0594 11.3775 12.1222 12.4402 13.463 12.6072C13.666 12.6324 13.8327 12.7957 13.8327 13.0003C13.8327 13.2049 13.666 13.3682 13.463 13.3935C12.1222 13.5604 11.0594 14.6232 10.8925 15.964C10.8673 16.167 10.7039 16.3337 10.4993 16.3337C10.2948 16.3337 10.1314 16.167 10.1062 15.964C9.93927 14.6232 8.87652 13.5604 7.53565 13.3935C7.33267 13.3682 7.16602 13.2049 7.16602 13.0003C7.16602 12.7957 7.33267 12.6324 7.53565 12.6072Z" stroke="#1C1D21" stroke-width="1.2" stroke-linecap="round" stroke-linejoin="round"/>
</svg>
