<svg width="20" height="21" viewBox="0 0 20 21" fill="none" xmlns="http://www.w3.org/2000/svg">
<path opacity="0.4" d="M9.51932 6.66813C9.68465 6.2213 10.3167 6.2213 10.482 6.66813L11.2231 8.67082C11.327 8.95176 11.5486 9.17334 11.8295 9.27726L13.8322 10.0183C14.279 10.1837 14.2791 10.8157 13.8322 10.981L11.8295 11.7221C11.5486 11.826 11.327 12.0476 11.2231 12.3285L10.482 14.3313C10.3167 14.778 9.68465 14.7781 9.51932 14.3313L8.77823 12.3285C8.67432 12.0476 8.45273 11.826 8.1718 11.7221L6.16911 10.981C5.72228 10.8157 5.72228 10.1837 6.16911 10.0183L8.1718 9.27726C8.45273 9.17334 8.67432 8.95176 8.77823 8.67082L9.51932 6.66813Z" fill="#1C1D21"/>
<path fill-rule="evenodd" clip-rule="evenodd" d="M2.31599 9.87533H3.74935C4.09452 9.87533 4.37435 10.1552 4.37435 10.5003C4.37435 10.8455 4.09452 11.1253 3.74935 11.1253H2.31599C2.56424 14.2193 4.6395 16.7978 7.46217 17.7813L7.46089 17.7794C6.82549 16.8077 6.3423 15.4732 6.05207 13.9507C5.98743 13.6117 6.20991 13.2843 6.54898 13.2197C6.88805 13.1551 7.21532 13.3776 7.27996 13.7167C7.55079 15.1373 7.9888 16.3027 8.5071 17.0953C9.03652 17.9049 9.56452 18.2087 9.99935 18.2087C10.4342 18.2087 10.9622 17.9049 11.4916 17.0953C12.0099 16.3027 12.4479 15.1373 12.7188 13.7167C12.7833 13.3776 13.1107 13.1551 13.4497 13.2197C13.7888 13.2843 14.0113 13.6117 13.9466 13.9507C13.6564 15.4732 13.1732 16.8077 12.5378 17.7794L12.5365 17.7813C15.3592 16.7978 17.4344 14.2193 17.6827 11.1253H16.2493C15.9042 11.1253 15.6243 10.8455 15.6243 10.5003C15.6243 10.1552 15.9042 9.87533 16.2493 9.87533H17.6827C17.4344 6.78133 15.3592 4.20278 12.5365 3.21928L12.5378 3.22124C13.1732 4.19291 13.6564 5.5275 13.9466 7.04996C14.0113 7.38903 13.7888 7.7163 13.4497 7.78093C13.1107 7.84558 12.7833 7.6231 12.7188 7.28403C12.4479 5.86331 12.0099 4.6979 11.4916 3.90537C10.9622 3.09578 10.4342 2.79199 9.99935 2.79199C9.56452 2.79199 9.03652 3.09578 8.5071 3.90537C7.9888 4.6979 7.55079 5.86331 7.27996 7.28403C7.21532 7.6231 6.88805 7.84558 6.54898 7.78093C6.20991 7.7163 5.98743 7.38903 6.05207 7.04996C6.3423 5.5275 6.82549 4.19291 7.46089 3.22124L7.46217 3.21929C4.6395 4.20278 2.56424 6.78133 2.31599 9.87533ZM9.99935 1.54199C5.0518 1.54199 1.04102 5.55278 1.04102 10.5003C1.04102 15.4479 5.0518 19.4587 9.99935 19.4587C14.9469 19.4587 18.9577 15.4479 18.9577 10.5003C18.9577 5.55278 14.9469 1.54199 9.99935 1.54199Z" fill="#1C1D21"/>
</svg>
