<svg width="22" height="22" viewBox="0 0 22 22" fill="none" xmlns="http://www.w3.org/2000/svg">
<path d="M18.3327 13.291V5.95768C18.3327 4.2292 18.3327 3.36495 17.7957 2.82799C17.2587 2.29102 16.3945 2.29102 14.666 2.29102H7.33268C5.6042 2.29102 4.73995 2.29102 4.20299 2.82799C3.66602 3.36495 3.66602 4.2292 3.66602 5.95768V13.291" stroke="#00C7BE" stroke-width="1.2" stroke-linecap="round" stroke-linejoin="round"/>
<path d="M3.20485 14.2218L3.68327 13.291H18.2878L18.7925 14.2218C20.1151 16.6616 20.4446 17.8814 19.9418 18.7946C19.4391 19.7077 18.1062 19.7077 15.4403 19.7077H6.5571C3.89125 19.7077 2.55831 19.7077 2.05558 18.7946C1.55284 17.8814 1.88221 16.6616 3.20485 14.2218Z" stroke="#00C7BE" stroke-width="1.2" stroke-linecap="round" stroke-linejoin="round"/>
<path opacity="0.4" d="M14.207 6.41602L15.0503 7.14283C15.4047 7.44839 15.582 7.60116 15.582 7.79102C15.582 7.98087 15.4047 8.13364 15.0503 8.4392L14.207 9.16602" stroke="#00C7BE" stroke-width="1.2" stroke-linecap="round" stroke-linejoin="round"/>
<path opacity="0.4" d="M7.79102 6.41602L6.94776 7.14283C6.59327 7.44839 6.41602 7.60116 6.41602 7.79102C6.41602 7.98087 6.59326 8.13364 6.94776 8.4392L7.79102 9.16602" stroke="#00C7BE" stroke-width="1.2" stroke-linecap="round" stroke-linejoin="round"/>
<path opacity="0.4" d="M11.9173 5.5L10.084 10.0833" stroke="#00C7BE" stroke-width="1.2" stroke-linecap="round" stroke-linejoin="round"/>
</svg>
