<svg width="22" height="22" viewBox="0 0 22 22" fill="none" xmlns="http://www.w3.org/2000/svg">
<path opacity="0.4" d="M9.62435 13.291H6.87435C6.01011 13.291 5.57799 13.291 5.3095 13.5595C5.04102 13.828 5.04102 14.2601 5.04102 15.1243C5.04102 15.9886 5.04102 16.4207 5.3095 16.6892C5.57799 16.9577 6.01011 16.9577 6.87435 16.9577H9.62435C10.4886 16.9577 10.9207 16.9577 11.1892 16.6892C11.4577 16.4207 11.4577 15.9886 11.4577 15.1243C11.4577 14.2601 11.4577 13.828 11.1892 13.5595C10.9207 13.291 10.4886 13.291 9.62435 13.291Z" stroke="#A2845E" stroke-width="1.2" stroke-linecap="round" stroke-linejoin="round"/>
<path d="M19.7077 12.3743V7.79102C19.7077 6.8824 19.7077 6.42809 19.5666 6.00473C19.4254 5.58136 19.1528 5.21791 18.6077 4.49102C17.798 3.41146 17.3932 2.87167 16.8125 2.58134C16.2319 2.29102 15.5571 2.29102 14.2077 2.29102H7.79102C6.44155 2.29102 5.76683 2.29102 5.18618 2.58134C4.60553 2.87167 4.20069 3.41145 3.39102 4.49102C2.84585 5.21791 2.57326 5.58136 2.43214 6.00473C2.29102 6.42809 2.29102 6.8824 2.29102 7.79102V12.3743C2.29102 15.8313 2.29102 17.5598 3.36495 18.6337C4.4389 19.7077 6.16738 19.7077 9.62435 19.7077H12.3743C15.8313 19.7077 17.5598 19.7077 18.6337 18.6337C19.7077 17.5598 19.7077 15.8313 19.7077 12.3743Z" stroke="#A2845E" stroke-width="1.2" stroke-linecap="round" stroke-linejoin="round"/>
<path d="M2.75 5.95898H19.25" stroke="#A2845E" stroke-width="1.2" stroke-linecap="round" stroke-linejoin="round"/>
<path opacity="0.4" d="M13.2904 5.95768H8.70703L9.6237 2.29102H12.3737L13.2904 5.95768Z" stroke="#A2845E" stroke-width="1.2" stroke-linecap="round" stroke-linejoin="round"/>
<path opacity="0.4" d="M13.2904 5.95898V7.79232C13.2904 8.65656 13.2904 9.08868 13.0219 9.35716C12.7534 9.62565 12.3213 9.62565 11.457 9.62565H10.5404C9.67613 9.62565 9.24401 9.62565 8.97551 9.35716C8.70703 9.08868 8.70703 8.65656 8.70703 7.79232V5.95898" stroke="#A2845E" stroke-width="1.2" stroke-linecap="round" stroke-linejoin="round"/>
</svg>
