<svg width="22" height="22" viewBox="0 0 22 22" fill="none" xmlns="http://www.w3.org/2000/svg">
<path d="M11.0007 1.83398C5.93805 1.83398 1.83398 5.93804 1.83398 11.0007C1.83398 16.0632 5.93804 20.1673 11.0007 20.1673C16.0632 20.1673 20.1673 16.0632 20.1673 11.0007C20.1673 5.93804 16.0632 1.83398 11.0007 1.83398Z" stroke="#34C759" stroke-width="1.2" stroke-linecap="round" stroke-linejoin="round"/>
<path opacity="0.4" d="M10.9994 4.58398C7.45558 4.58398 4.58274 7.45682 4.58274 11.0007C4.58274 14.5445 7.45558 17.4173 10.9994 17.4173M10.9994 4.58398C14.5432 4.58398 17.4161 7.45682 17.4161 11.0007C17.4161 14.5445 14.5432 17.4173 10.9994 17.4173M10.9994 4.58398V1.83398M10.9994 17.4173V20.1673M3.06084 6.41732L5.4424 7.79232M16.5567 14.209L18.9383 15.584M18.9379 6.41732L16.5564 7.79232M5.44211 14.209L3.06055 15.584" stroke="#34C759" stroke-width="1.2" stroke-linecap="round"/>
<path d="M9.56836 13.4451V8.5562M11.0007 8.5562V7.33398M11.0007 14.6673V13.4451M9.56836 11.0007H12.4329M12.4329 11.0007C12.9076 11.0007 13.2923 11.411 13.2923 11.9173V12.5285C13.2923 13.0347 12.9076 13.4451 12.4329 13.4451H8.70898M12.4329 11.0007C12.9076 11.0007 13.2923 10.5903 13.2923 10.084V9.47284C13.2923 8.96661 12.9076 8.5562 12.4329 8.5562H8.70898" stroke="#34C759" stroke-width="1.2" stroke-linecap="round" stroke-linejoin="round"/>
</svg>
