<svg width="22" height="22" viewBox="0 0 22 22" fill="none" xmlns="http://www.w3.org/2000/svg">
<path d="M20.1673 11.0007C20.1673 5.93804 16.0632 1.83398 11.0007 1.83398C5.93804 1.83398 1.83398 5.93804 1.83398 11.0007C1.83398 16.0632 5.93804 20.1673 11.0007 20.1673C11.7722 20.1673 12.834 20.2739 12.834 19.2506C12.834 18.6924 12.5436 18.2617 12.2552 17.8338C11.8332 17.2079 11.4153 16.588 11.9173 15.584C12.5285 14.3618 13.547 14.3618 15.1087 14.3618C15.8896 14.3618 16.8063 14.3618 17.8756 14.209C19.8016 13.9339 20.1673 12.75 20.1673 11.0007Z" stroke="#32ADE6" stroke-width="1.2"/>
<path d="M6.41602 13.7523L6.42445 13.75" stroke="#32ADE6" stroke-width="1.2" stroke-linecap="round" stroke-linejoin="round"/>
<path opacity="0.4" d="M8.70898 9.16602C9.46838 9.16602 10.084 8.55041 10.084 7.79102C10.084 7.03162 9.46838 6.41602 8.70898 6.41602C7.94959 6.41602 7.33398 7.03162 7.33398 7.79102C7.33398 8.55041 7.94959 9.16602 8.70898 9.16602Z" stroke="#32ADE6" stroke-width="1.2"/>
<path opacity="0.4" d="M15.125 10.084C15.8844 10.084 16.5 9.46838 16.5 8.70898C16.5 7.94959 15.8844 7.33398 15.125 7.33398C14.3656 7.33398 13.75 7.94959 13.75 8.70898C13.75 9.46838 14.3656 10.084 15.125 10.084Z" stroke="#32ADE6" stroke-width="1.2"/>
</svg>
