<svg width="22" height="22" viewBox="0 0 22 22" fill="none" xmlns="http://www.w3.org/2000/svg">
<path d="M18.7923 15.5185V9.16732C18.7923 5.71035 18.7923 3.98187 17.7183 2.90792C16.6445 1.83398 14.9159 1.83398 11.459 1.83398H10.5423C7.08535 1.83398 5.35687 1.83398 4.28292 2.90792C3.20898 3.98187 3.20898 5.71035 3.20898 9.16732V17.8757" stroke="#5856D6" stroke-width="1.2" stroke-linecap="round"/>
<path d="M18.7923 15.584H5.50065C4.235 15.584 3.20898 16.61 3.20898 17.8757C3.20898 19.1413 4.235 20.1673 5.50065 20.1673H18.7923" stroke="#5856D6" stroke-width="1.2" stroke-linecap="round"/>
<path opacity="0.4" d="M18.7917 20.1673C17.526 20.1673 16.5 19.1413 16.5 17.8757C16.5 16.61 17.526 15.584 18.7917 15.584" stroke="#5856D6" stroke-width="1.2" stroke-linecap="round"/>
<path opacity="0.4" d="M13.75 6.41602H8.25" stroke="#5856D6" stroke-width="1.2" stroke-linecap="round" stroke-linejoin="round"/>
<path opacity="0.4" d="M11 10.084H8.25" stroke="#5856D6" stroke-width="1.2" stroke-linecap="round" stroke-linejoin="round"/>
</svg>
