<svg width="22" height="22" viewBox="0 0 22 22" fill="none" xmlns="http://www.w3.org/2000/svg">
<path opacity="0.4" d="M7.69531 2.33832C9.04731 1.50062 10.2273 1.8382 10.9362 2.37593C11.2269 2.5964 11.3722 2.70665 11.4577 2.70665C11.5432 2.70665 11.6885 2.5964 11.9792 2.37593C12.688 1.8382 13.8681 1.50062 15.2201 2.33832C16.9944 3.43769 17.3959 7.06459 13.3032 10.1245C12.5237 10.7073 12.1339 10.9987 11.4577 10.9987C10.7815 10.9987 10.3917 10.7073 9.61216 10.1245C5.51947 7.06459 5.92096 3.43769 7.69531 2.33832Z" stroke="#007AFF" stroke-width="1.2" stroke-linecap="round"/>
<path d="M3.66602 12.834H5.86127C6.13091 12.834 6.39684 12.8948 6.638 13.0115L8.50982 13.9171C8.75099 14.0338 9.01692 14.0945 9.28656 14.0945H10.2423C11.1666 14.0945 11.916 14.8197 11.916 15.7142C11.916 15.7503 11.8913 15.7821 11.8553 15.792L9.52617 16.436C9.10833 16.5515 8.66093 16.5113 8.27227 16.3232L6.27128 15.3551" stroke="#007AFF" stroke-width="1.2" stroke-linecap="round" stroke-linejoin="round"/>
<path d="M11.916 15.125L16.1261 13.8315C16.8724 13.599 17.6792 13.8747 18.1467 14.5221C18.4848 14.9902 18.3471 15.6605 17.8546 15.9447L10.9653 19.9196C10.5272 20.1725 10.0102 20.2342 9.52828 20.0912L3.66602 18.3516" stroke="#007AFF" stroke-width="1.2" stroke-linecap="round" stroke-linejoin="round"/>
</svg>
