<svg width="23" height="23" viewBox="0 0 23 23" fill="none" xmlns="http://www.w3.org/2000/svg">
<path opacity="0.4" d="M19.75 16.0827L17 9.66602L14.25 16.0827" stroke="#FF9500" stroke-width="1.2" stroke-linecap="round" stroke-linejoin="round"/>
<path opacity="0.4" d="M8.75 16.0827L6 9.66602L3.25 16.0827" stroke="#FF9500" stroke-width="1.2" stroke-linecap="round" stroke-linejoin="round"/>
<path d="M4.16602 9.66667H5.12687C6.28504 9.66667 7.40872 9.02011 8.31311 7.83334C10.1759 5.38889 12.8228 5.38889 14.6856 7.83334C15.59 9.02011 16.7136 9.66667 17.8718 9.66667H18.8327" stroke="#FF9500" stroke-width="1.2" stroke-linecap="round" stroke-linejoin="round"/>
<path d="M17.0007 20.6673C18.4309 20.6673 19.6757 19.7033 20.3172 18.2816C20.6405 17.5654 20.8021 17.2074 20.5276 16.6456C20.2533 16.084 19.7988 16.084 18.8899 16.084H15.1114C14.2025 16.084 13.748 16.084 13.4737 16.6456C13.1992 17.2074 13.3608 17.5654 13.6841 18.2816C14.3256 19.7033 15.5704 20.6673 17.0007 20.6673Z" stroke="#FF9500" stroke-width="1.2"/>
<path d="M6.00065 20.6673C7.43097 20.6673 8.67567 19.7033 9.31723 18.2816C9.64044 17.5654 9.80207 17.2074 9.52765 16.6456C9.25325 16.084 8.79879 16.084 7.88987 16.084H4.11143C3.20252 16.084 2.74805 16.084 2.47366 16.6456C2.19925 17.2074 2.36086 17.5654 2.68407 18.2816C3.32563 19.7033 4.57033 20.6673 6.00065 20.6673Z" stroke="#FF9500" stroke-width="1.2"/>
<path d="M13.3327 4.16732C13.3327 5.17984 12.5119 6.00065 11.4993 6.00065C10.4868 6.00065 9.66602 5.17984 9.66602 4.16732C9.66602 3.1548 10.4868 2.33398 11.4993 2.33398C12.5119 2.33398 13.3327 3.1548 13.3327 4.16732Z" stroke="#FF9500" stroke-width="1.2"/>
</svg>
