<svg width="21" height="21" viewBox="0 0 21 21" fill="none" xmlns="http://www.w3.org/2000/svg">
<path d="M15.75 15.75C17.683 15.75 19.25 12.616 19.25 8.75C19.25 4.88401 17.683 1.75 15.75 1.75C13.817 1.75 12.25 4.88401 12.25 8.75C12.25 12.616 13.817 15.75 15.75 15.75Z" stroke="#AF52DE" stroke-width="1.2"/>
<path d="M15.75 1.75C13.0348 1.75 7.40698 3.83041 4.17467 5.12201C2.69449 5.71347 1.75 7.15603 1.75 8.75C1.75 10.344 2.69449 11.7865 4.17467 12.378C7.40698 13.6696 13.0348 15.75 15.75 15.75" stroke="#AF52DE" stroke-width="1.2"/>
<path opacity="0.4" d="M9.625 19.25L7.92465 18.314C6.07335 17.295 5.02822 15.2367 5.28979 13.125" stroke="#AF52DE" stroke-width="1.2" stroke-linecap="round" stroke-linejoin="round"/>
</svg>
