<svg width="22" height="22" viewBox="0 0 22 22" fill="none" xmlns="http://www.w3.org/2000/svg">
<path d="M20.1673 11.0007C20.1673 16.0632 16.0632 20.1673 11.0007 20.1673C5.93804 20.1673 1.83398 16.0632 1.83398 11.0007C1.83398 5.93804 5.93804 1.83398 11.0007 1.83398C16.0632 1.83398 20.1673 5.93804 20.1673 11.0007Z" stroke="#FF2D55" stroke-width="1.2"/>
<path d="M10.7314 8.5692C10.8912 8.44829 11.1075 8.44829 11.2673 8.5692L13.3323 10.1322C13.492 10.2531 13.5589 10.4674 13.4978 10.6631L12.7091 13.1921C12.6481 13.3877 12.4731 13.5202 12.2756 13.5202H9.72307C9.52562 13.5202 9.35063 13.3877 9.28958 13.1921L8.50085 10.6631C8.43984 10.4674 8.50668 10.2531 8.66642 10.1322L10.7314 8.5692Z" stroke="#FF2D55" stroke-width="1.2"/>
<path opacity="0.4" d="M11.0007 8.25065V4.58398M13.7507 10.084L17.4173 8.70898M12.834 13.7507L14.6673 16.5007M9.16732 13.2923L7.33398 15.584M8.25065 10.5423L4.58398 9.62565" stroke="#FF2D55" stroke-width="1.2" stroke-linecap="round" stroke-linejoin="round"/>
<path d="M8.25065 2.29102L11.0158 4.23656L13.7507 2.29102M1.83398 11.7325L4.76416 9.56825L3.25984 6.15976M17.8484 17.2814L14.3151 16.6419L13.0774 20.166M18.3613 5.67889L17.2372 8.60665L20.1673 10.7708M7.34308 19.6214L7.38112 15.7353L3.67035 15.7752" stroke="#FF2D55" stroke-width="1.2" stroke-linejoin="round"/>
</svg>
