<svg width="19" height="20" viewBox="0 0 19 20" fill="none" xmlns="http://www.w3.org/2000/svg">
<path d="M2.3834 14.4703V12.001H0.0273438V14.4154H2.3834V14.4703Z" fill="#7E2FE3"/>
<path d="M18.5548 13.0438C18.5012 13.3181 18.3941 13.6473 18.2871 13.9217C18.2871 13.9766 18.2335 14.0314 18.2335 14.0864C18.0194 14.635 17.7516 15.129 17.4839 15.6228C17.2161 16.0069 16.9484 16.391 16.6806 16.7202C16.52 16.8849 16.413 17.0495 16.2523 17.2141L16.3059 17.1593C16.0917 17.3788 15.8775 17.5983 15.6097 17.8178C15.5026 17.9275 15.342 17.9824 15.2349 18.0921C15.1813 18.0921 15.1278 18.147 15.1278 18.147C14.8065 18.3664 14.4853 18.5311 14.1104 18.6957C13.682 18.9152 13.2001 19.0798 12.7182 19.1896C12.2363 19.2993 11.7008 19.409 11.2189 19.464C10.6299 19.5188 10.0408 19.5188 9.39828 19.409C6.66735 19.025 4.36487 17.4336 2.97266 15.2387C3.29394 15.6228 3.61522 15.9521 3.99001 16.2264C4.63257 16.7202 5.38223 17.1044 6.23897 17.269C6.61384 17.3788 7.04222 17.3788 7.417 17.3788C7.5241 17.3788 7.63119 17.3788 7.73829 17.3788C8.32734 17.3788 8.9164 17.269 9.45186 17.0495C9.55896 16.9947 9.61246 16.9947 9.71956 16.9397C9.88024 16.8849 10.0944 16.7752 10.255 16.7202C10.3086 16.7202 10.3086 16.6654 10.3621 16.6654C12.0221 15.7326 13.2536 14.0864 13.4678 12.0011C13.5214 11.617 13.5214 11.178 13.5214 10.7939C15.0207 10.7939 16.2523 11.7267 16.8948 12.9888C16.9484 13.1535 17.0019 13.3181 17.0555 13.4827C17.0555 13.3729 17.0555 13.3181 17.0555 13.2083C17.0555 12.7693 17.0019 12.3852 16.9484 11.9462C16.413 9.03792 13.8962 6.89787 10.8976 6.89787C10.5228 6.89787 10.2015 6.95273 9.82665 7.00758C9.82665 7.00758 9.82665 7.00758 9.77314 7.00758C8.70221 7.17222 7.95255 7.50149 6.77444 8.37945C6.29256 8.70873 5.32872 9.58669 4.57906 10.3C4.20419 10.6841 3.56163 10.3 3.66873 9.75132C3.77582 9.25741 3.9365 8.70873 4.25778 8.10511C2.75847 5.96498 2.75847 3.6603 5.70351 1.62995C7.41701 0.422743 10.255 0.0934996 12.8789 1.08127C14.4853 0.203253 16.7877 0.148376 18.8761 2.45306C19.0903 2.67255 18.9296 3.05668 18.6083 3.05668C18.0194 3.05668 17.2161 3.22132 16.5736 3.71515C16.6271 3.77008 16.6806 3.87979 16.7877 3.98957C19.3045 7.39171 19.2509 10.5744 18.5548 13.0438Z" fill="#7E2FE3"/>
</svg>
