<svg width="23" height="22" viewBox="0 0 23 22" fill="none" xmlns="http://www.w3.org/2000/svg">
<path d="M9.01051 13.98L16.2828 8.60518C16.6393 8.34169 17.1489 8.44446 17.3188 8.85377C18.2129 11.0123 17.8134 13.6063 16.0345 15.3873C14.2557 17.1682 11.7806 17.5588 9.51826 16.6693L7.04688 17.8149C10.5916 20.2406 14.8959 19.6408 17.5857 16.9459C19.7192 14.8098 20.38 11.8981 19.7622 9.2724L19.7677 9.27798C18.8718 5.42068 19.988 3.87888 22.2746 0.726131C22.3287 0.651377 22.3828 0.576623 22.437 0.5L19.428 3.51259V3.50324L9.00868 13.9819" fill="black"/>
<path d="M7.51002 15.2858C4.96582 12.8526 5.40447 9.08683 7.57532 6.91527C9.18058 5.30804 11.8106 4.65208 14.1065 5.61641L16.5723 4.47641C16.1281 4.15497 15.5588 3.80923 14.9055 3.56628C11.9525 2.34966 8.41716 2.95516 6.01671 5.35663C3.70773 7.6684 2.98162 11.223 4.22851 14.2561C5.15994 16.523 3.63306 18.1265 2.09498 19.7449C1.54993 20.3186 1.00302 20.8924 0.5625 21.4998L7.50812 15.2877" fill="black"/>
</svg>
