<svg width="18" height="18" viewBox="0 0 18 18" fill="none" xmlns="http://www.w3.org/2000/svg">
<path d="M16.813 7.3673C17.2269 6.14159 17.0844 4.79887 16.4226 3.68397C15.4272 1.97394 13.4263 1.09417 11.4721 1.50818C10.6027 0.541782 9.3537 -0.00779168 8.04425 8.34899e-05C6.04673 -0.00441661 4.27439 1.26461 3.65985 3.14003C2.37663 3.39934 1.26898 4.19192 0.620816 5.31526C-0.381935 7.0208 -0.153337 9.17072 1.18632 10.6332C0.772455 11.859 0.914972 13.2017 1.57682 14.3166C2.57216 16.0266 4.5731 16.9064 6.5273 16.4924C7.39608 17.4588 8.64567 18.0083 9.95512 17.9999C11.9538 18.005 13.7267 16.7348 14.3412 14.8577C15.6245 14.5984 16.7321 13.8058 17.3803 12.6825C18.3819 10.9769 18.1527 8.82871 16.8136 7.36618L16.813 7.3673ZM9.95626 16.8237C9.15646 16.8248 8.38173 16.5486 7.76777 16.0429C7.7957 16.0283 7.84416 16.0019 7.87551 15.9827L11.508 13.9127C11.6938 13.8086 11.8078 13.6134 11.8067 13.4025V8.34945L13.3419 9.22416C13.3584 9.23203 13.3693 9.24778 13.3715 9.26578V13.4503C13.3693 15.3111 11.8421 16.8198 9.95626 16.8237ZM2.6115 13.7282C2.21074 13.0453 2.06651 12.2448 2.2039 11.468C2.23069 11.4838 2.27801 11.5125 2.31164 11.5316L5.94412 13.6016C6.12825 13.7079 6.35628 13.7079 6.54098 13.6016L10.9755 11.0748V12.8242C10.9767 12.8422 10.9681 12.8597 10.9539 12.8709L7.28207 14.9629C5.64654 15.8922 3.55781 15.3398 2.61207 13.7282H2.6115ZM1.65549 5.90421C2.05454 5.2202 2.68447 4.69706 3.43468 4.42537C3.43468 4.4563 3.43297 4.51087 3.43297 4.54912V8.68977C3.43183 8.90015 3.54584 9.09534 3.73111 9.1994L8.16568 11.7256L6.63048 12.6004C6.61509 12.6105 6.59571 12.6122 6.57861 12.6049L2.90622 10.5112C1.27412 9.57854 0.714308 7.51806 1.65492 5.90477L1.65549 5.90421ZM14.2688 8.80058L9.83427 6.27378L11.3695 5.39964C11.3849 5.38951 11.4042 5.38782 11.4213 5.39514L15.0937 7.48712C16.7287 8.4192 17.2891 10.4831 16.3445 12.0963C15.9448 12.7792 15.3155 13.3024 14.5658 13.5746V9.31022C14.5675 9.09984 14.4541 8.90521 14.2694 8.80058H14.2688ZM15.7966 6.53141C15.7698 6.5151 15.7225 6.48697 15.6889 6.46785L12.0564 4.3978C11.8723 4.29149 11.6442 4.29149 11.4595 4.3978L7.02497 6.92461V5.17519C7.02383 5.15719 7.03238 5.13976 7.04663 5.12851L10.7184 3.03821C12.354 2.10725 14.445 2.66133 15.3879 4.27574C15.7864 4.9575 15.9306 5.75571 15.7955 6.53141H15.7966ZM6.19039 9.64941L4.65462 8.77471C4.63809 8.76683 4.62726 8.75108 4.62498 8.73308V4.54856C4.62612 2.68552 6.1579 1.17573 8.04596 1.17686C8.84463 1.17686 9.61764 1.45361 10.2316 1.95763C10.2037 1.97225 10.1558 1.99869 10.1239 2.01781L6.49138 4.08786C6.30554 4.19192 6.19153 4.38655 6.19267 4.59749L6.19039 9.64829V9.64941ZM7.0244 7.87525L8.99969 6.74967L10.975 7.87469V10.1253L8.99969 11.2503L7.0244 10.1253V7.87525Z" fill="#1C1D21"/>
</svg>
