<svg width="22" height="22" viewBox="0 0 22 22" fill="none" xmlns="http://www.w3.org/2000/svg">
<path opacity="0.4" d="M11.916 10.083L16.4993 5.49967M15.5827 4.58301L17.416 6.41634L18.791 4.12467L17.8743 3.20801L15.5827 4.58301Z" stroke="#AF52DE" stroke-width="1.4" stroke-linejoin="round"/>
<path d="M3.6897 8.22696C2.76298 7.30025 2.5217 5.94766 2.96586 4.79919L4.26935 6.10269H6.10269V4.26935L4.79919 2.96586C5.94766 2.5217 7.30025 2.76298 8.22696 3.6897C9.15402 4.61676 9.39519 5.97001 8.95031 7.11877L14.8813 13.0497C16.03 12.6048 17.3832 12.846 18.3103 13.773C19.237 14.6998 19.4783 16.0523 19.0341 17.2008L17.7306 15.8973H15.8973V17.7306L17.2008 19.0341C16.0523 19.4783 14.6998 19.237 13.773 18.3103C12.8466 17.3839 12.6052 16.032 13.0487 14.8838L7.11619 8.95131C5.96798 9.39482 4.61607 9.15334 3.6897 8.22696Z" stroke="#AF52DE" stroke-width="1.4" stroke-linejoin="round"/>
<path opacity="0.4" d="M11.1867 13.2913L6.0497 18.4284C5.56587 18.9122 4.78143 18.9122 4.2976 18.4284L3.57185 17.7027C3.08803 17.2189 3.08803 16.4344 3.57185 15.9506L8.70893 10.8135" stroke="#AF52DE" stroke-width="1.4" stroke-linejoin="round"/>
</svg>
