<svg width="22" height="22" viewBox="0 0 22 22" fill="none" xmlns="http://www.w3.org/2000/svg">
<path d="M12.9904 19.15C16.8248 18.8951 19.8791 15.7974 20.1305 11.9087C20.1796 11.1476 20.1796 10.3595 20.1305 9.59847C19.8791 5.70967 16.8248 2.61203 12.9904 2.35714C11.6822 2.27018 10.3164 2.27037 9.01093 2.35714C5.17651 2.61203 2.12219 5.70967 1.87087 9.59847C1.82169 10.3595 1.82169 11.1476 1.87087 11.9087C1.96241 13.325 2.58879 14.6364 3.32623 15.7437C3.75441 16.5189 3.47183 17.4865 3.02584 18.3316C2.70427 18.941 2.54349 19.2457 2.67259 19.4658C2.80169 19.6859 3.09005 19.693 3.66679 19.707C4.80735 19.7348 5.57644 19.4114 6.18694 18.9612C6.53318 18.7059 6.70631 18.5782 6.82564 18.5636C6.94495 18.5489 7.17977 18.6456 7.64933 18.839C8.07135 19.0128 8.56136 19.1201 9.01093 19.15C10.3164 19.2368 11.6822 19.2369 12.9904 19.15Z" stroke="#007AFF" stroke-width="1.5" stroke-linejoin="round"/>
<path opacity="0.4" d="M10.9965 11H11.0048M14.659 11H14.6673M7.33398 11H7.34221" stroke="#007AFF" stroke-width="1.5" stroke-linecap="round" stroke-linejoin="round"/>
</svg>
