<svg width="22" height="22" viewBox="0 0 22 22" fill="none" xmlns="http://www.w3.org/2000/svg">
<path d="M2.75 11C2.75 12.5188 6.03324 13.75 10.0833 13.75C10.3938 13.75 10.6997 13.7428 11 13.7287" stroke="#32ADE6" stroke-width="1.5" stroke-linecap="round"/>
<path d="M17.4167 4.58301V10.5413M2.75 4.58301V17.4163C2.75 18.9352 6.03324 20.1663 10.0833 20.1663C10.3938 20.1663 10.6997 20.1591 11 20.1451" stroke="#32ADE6" stroke-width="1.5" stroke-linecap="round"/>
<path d="M10.0833 7.33301C14.1334 7.33301 17.4167 6.10179 17.4167 4.58301C17.4167 3.06422 14.1334 1.83301 10.0833 1.83301C6.03325 1.83301 2.75 3.06422 2.75 4.58301C2.75 6.10179 6.03325 7.33301 10.0833 7.33301Z" stroke="#32ADE6" stroke-width="1.5"/>
<path opacity="0.4" d="M6.41602 7.33301V9.16634" stroke="#32ADE6" stroke-width="1.5" stroke-linecap="round"/>
<path opacity="0.4" d="M6.41602 13.75V15.5833" stroke="#32ADE6" stroke-width="1.5" stroke-linecap="round"/>
<path opacity="0.4" d="M18.3219 12.833L18.7796 14.7437L18.0192 14.2686C17.4775 13.8572 16.8043 13.6133 16.0748 13.6133C14.2849 13.6133 12.834 15.0802 12.834 16.8898C12.834 18.6994 14.2849 20.1663 16.0748 20.1663C17.6425 20.1663 18.9504 19.0407 19.2507 17.5451" stroke="#32ADE6" stroke-width="1.5" stroke-linecap="round" stroke-linejoin="round"/>
</svg>
