<svg width="22" height="22" viewBox="0 0 22 22" fill="none" xmlns="http://www.w3.org/2000/svg">
<path d="M14.6673 1.83301V5.49967M7.33398 1.83301V5.49967" stroke="#5856D6" stroke-width="1.5" stroke-linecap="round" stroke-linejoin="round"/>
<path d="M11.9167 3.66699H10.0833C6.62636 3.66699 4.89789 3.66699 3.82394 4.74093C2.75 5.81488 2.75 7.54336 2.75 11.0003V12.8337C2.75 16.2906 2.75 18.0192 3.82394 19.093C4.89789 20.167 6.62636 20.167 10.0833 20.167H11.9167C15.3736 20.167 17.1022 20.167 18.176 19.093C19.25 18.0192 19.25 16.2906 19.25 12.8337V11.0003C19.25 7.54336 19.25 5.81488 18.176 4.74093C17.1022 3.66699 15.3736 3.66699 11.9167 3.66699Z" stroke="#5856D6" stroke-width="1.5" stroke-linecap="round" stroke-linejoin="round"/>
<path d="M2.75 9.16699H19.25" stroke="#5856D6" stroke-width="1.5" stroke-linecap="round" stroke-linejoin="round"/>
<path opacity="0.4" d="M10.9965 12.833H11.0048M10.9965 16.4997H11.0048M14.6591 12.833H14.6673M7.33398 12.833H7.34221M7.33398 16.4997H7.34221" stroke="#5856D6" stroke-width="1.5" stroke-linecap="round" stroke-linejoin="round"/>
</svg>
