<svg width="22" height="22" viewBox="0 0 22 22" fill="none" xmlns="http://www.w3.org/2000/svg">
<path d="M10.9993 7.33301C15.0494 7.33301 18.3327 6.10179 18.3327 4.58301C18.3327 3.06422 15.0494 1.83301 10.9993 1.83301C6.94926 1.83301 3.66602 3.06422 3.66602 4.58301C3.66602 6.10179 6.94926 7.33301 10.9993 7.33301Z" stroke="#FFCC00" stroke-width="1.5"/>
<path d="M18.3327 11C18.3327 12.5188 15.0495 13.75 10.9993 13.75C6.94926 13.75 3.66602 12.5188 3.66602 11" stroke="#FFCC00" stroke-width="1.5"/>
<path d="M18.3327 4.58301V17.4163C18.3327 18.9352 15.0495 20.1663 10.9993 20.1663C6.94926 20.1663 3.66602 18.9352 3.66602 17.4163V4.58301" stroke="#FFCC00" stroke-width="1.5"/>
<path opacity="0.4" d="M7.33398 7.33301V9.16634" stroke="#FFCC00" stroke-width="1.5" stroke-linecap="round"/>
<path opacity="0.4" d="M7.33398 13.75V15.5833" stroke="#FFCC00" stroke-width="1.5" stroke-linecap="round"/>
</svg>
